<svg width="54" height="66" viewBox="0 0 54 66" fill="none" xmlns="http://www.w3.org/2000/svg">
<path d="M18 52.416C14.448 52.416 11.304 51.672 8.568 50.184C5.88 48.648 3.768 46.512 2.232 43.776C0.744 40.992 0 37.728 0 33.984V33.12C0 29.376 0.744 26.136 2.232 23.4C3.72 20.616 5.808 18.48 8.496 16.992C11.184 15.456 14.304 14.688 17.856 14.688C21.36 14.688 24.408 15.48 27 17.064C29.592 18.6 31.608 20.76 33.048 23.544C34.488 26.28 35.208 29.472 35.208 33.12V36.216H9.216C9.312 38.664 10.224 40.656 11.952 42.192C13.68 43.728 15.792 44.496 18.288 44.496C20.832 44.496 22.704 43.944 23.904 42.84C25.104 41.736 26.016 40.512 26.64 39.168L34.056 43.056C33.384 44.304 32.4 45.672 31.104 47.16C29.856 48.6 28.176 49.848 26.064 50.904C23.952 51.912 21.264 52.416 18 52.416ZM9.288 29.448H25.992C25.8 27.384 24.96 25.728 23.472 24.48C22.032 23.232 20.136 22.608 17.784 22.608C15.336 22.608 13.392 23.232 11.952 24.48C10.512 25.728 9.624 27.384 9.288 29.448Z" fill="#F5F7FA"/>
<path d="M36.6587 65.808V58.032H41.4107C42.7547 58.032 43.4267 57.312 43.4267 55.872V15.696H52.4987V57.744C52.4987 60.192 51.7787 62.136 50.3387 63.576C48.8987 65.064 46.9787 65.808 44.5787 65.808H36.6587ZM47.9627 11.52C46.3307 11.52 44.9387 10.992 43.7867 9.936C42.6827 8.88 42.1307 7.488 42.1307 5.76C42.1307 4.032 42.6827 2.64 43.7867 1.584C44.9387 0.528 46.3307 0 47.9627 0C49.6427 0 51.0347 0.528 52.1387 1.584C53.2427 2.64 53.7947 4.032 53.7947 5.76C53.7947 7.488 53.2427 8.88 52.1387 9.936C51.0347 10.992 49.6427 11.52 47.9627 11.52Z" fill="#F5F7FA"/>
</svg>
