<svg width="294" height="66" viewBox="0 0 294 66" fill="none" xmlns="http://www.w3.org/2000/svg">
<path d="M18 52.416C14.448 52.416 11.304 51.672 8.568 50.184C5.88 48.648 3.768 46.512 2.232 43.776C0.744 40.992 0 37.728 0 33.984V33.12C0 29.376 0.744 26.136 2.232 23.4C3.72 20.616 5.808 18.48 8.496 16.992C11.184 15.456 14.304 14.688 17.856 14.688C21.36 14.688 24.408 15.48 27 17.064C29.592 18.6 31.608 20.76 33.048 23.544C34.488 26.28 35.208 29.472 35.208 33.12V36.216H9.216C9.312 38.664 10.224 40.656 11.952 42.192C13.68 43.728 15.792 44.496 18.288 44.496C20.832 44.496 22.704 43.944 23.904 42.84C25.104 41.736 26.016 40.512 26.64 39.168L34.056 43.056C33.384 44.304 32.4 45.672 31.104 47.16C29.856 48.6 28.176 49.848 26.064 50.904C23.952 51.912 21.264 52.416 18 52.416ZM9.288 29.448H25.992C25.8 27.384 24.96 25.728 23.472 24.48C22.032 23.232 20.136 22.608 17.784 22.608C15.336 22.608 13.392 23.232 11.952 24.48C10.512 25.728 9.624 27.384 9.288 29.448Z" fill="#0A0A0A"/>
<path d="M43.2827 51.408V15.696H52.2107V19.584H53.5067C54.1307 18.384 55.1627 17.352 56.6027 16.488C58.0427 15.576 59.9387 15.12 62.2907 15.12C64.8347 15.12 66.8747 15.624 68.4107 16.632C69.9467 17.592 71.1227 18.864 71.9387 20.448H73.2347C74.0507 18.912 75.2027 17.64 76.6907 16.632C78.1787 15.624 80.2907 15.12 83.0267 15.12C85.2347 15.12 87.2267 15.6 89.0027 16.56C90.8267 17.472 92.2667 18.888 93.3227 20.808C94.4267 22.68 94.9787 25.056 94.9787 27.936V51.408H85.9067V28.584C85.9067 26.616 85.4027 25.152 84.3947 24.192C83.3867 23.184 81.9707 22.68 80.1467 22.68C78.0827 22.68 76.4747 23.352 75.3227 24.696C74.2187 25.992 73.6667 27.864 73.6667 30.312V51.408H64.5947V28.584C64.5947 26.616 64.0907 25.152 63.0827 24.192C62.0747 23.184 60.6587 22.68 58.8347 22.68C56.7707 22.68 55.1627 23.352 54.0107 24.696C52.9067 25.992 52.3547 27.864 52.3547 30.312V51.408H43.2827Z" fill="#0A0A0A"/>
<path d="M98.1118 65.808V58.032H102.864C104.208 58.032 104.88 57.312 104.88 55.872V15.696H113.952V57.744C113.952 60.192 113.232 62.136 111.792 63.576C110.352 65.064 108.432 65.808 106.032 65.808H98.1118ZM109.416 11.52C107.784 11.52 106.392 10.992 105.24 9.936C104.136 8.88 103.584 7.488 103.584 5.76C103.584 4.032 104.136 2.64 105.24 1.584C106.392 0.528 107.784 0 109.416 0C111.096 0 112.488 0.528 113.592 1.584C114.696 2.64 115.248 4.032 115.248 5.76C115.248 7.488 114.696 8.88 113.592 9.936C112.488 10.992 111.096 11.52 109.416 11.52Z" fill="#0A0A0A"/>
<path d="M137.609 51.984C134.825 51.984 132.377 51.36 130.265 50.112C128.201 48.816 126.593 47.04 125.441 44.784C124.289 42.528 123.713 39.936 123.713 37.008V15.696H132.785V36.288C132.785 38.976 133.433 40.992 134.729 42.336C136.073 43.68 137.969 44.352 140.417 44.352C143.201 44.352 145.361 43.44 146.897 41.616C148.433 39.744 149.201 37.152 149.201 33.84V15.696H158.273V51.408H149.345V46.728H148.049C147.473 47.928 146.393 49.104 144.809 50.256C143.225 51.408 140.825 51.984 137.609 51.984Z" fill="#0A0A0A"/>
<path d="M182.769 52.416C179.937 52.416 177.273 51.72 174.777 50.328C172.329 48.888 170.361 46.8 168.873 44.064C167.385 41.328 166.641 38.016 166.641 34.128V32.976C166.641 29.088 167.385 25.776 168.873 23.04C170.361 20.304 172.329 18.24 174.777 16.848C177.225 15.408 179.889 14.688 182.769 14.688C184.929 14.688 186.729 14.952 188.169 15.48C189.657 15.96 190.857 16.584 191.769 17.352C192.681 18.12 193.377 18.936 193.857 19.8H195.153V1.008H204.225V51.408H195.297V47.088H194.001C193.185 48.432 191.913 49.656 190.185 50.76C188.505 51.864 186.033 52.416 182.769 52.416ZM185.505 44.496C188.289 44.496 190.617 43.608 192.489 41.832C194.361 40.008 195.297 37.368 195.297 33.912V33.192C195.297 29.736 194.361 27.12 192.489 25.344C190.665 23.52 188.337 22.608 185.505 22.608C182.721 22.608 180.393 23.52 178.521 25.344C176.649 27.12 175.713 29.736 175.713 33.192V33.912C175.713 37.368 176.649 40.008 178.521 41.832C180.393 43.608 182.721 44.496 185.505 44.496Z" fill="#0A0A0A"/>
<path d="M212.555 33.696V32.544C212.555 28.8 213.299 25.608 214.787 22.968C216.275 20.28 218.243 18.24 220.691 16.848C223.187 15.408 225.899 14.688 228.827 14.688C232.091 14.688 234.563 15.264 236.243 16.416C237.923 17.568 239.147 18.768 239.915 20.016H241.211V15.696H250.139V57.744C250.139 60.192 249.419 62.136 247.979 63.576C246.539 65.064 244.619 65.808 242.219 65.808H218.315V57.888H239.051C240.395 57.888 241.067 57.168 241.067 55.728V46.44H239.771C239.291 47.208 238.619 48 237.755 48.816C236.891 49.584 235.739 50.232 234.299 50.76C232.859 51.288 231.035 51.552 228.827 51.552C225.899 51.552 223.187 50.856 220.691 49.464C218.243 48.024 216.275 45.984 214.787 43.344C213.299 40.656 212.555 37.44 212.555 33.696ZM231.419 43.632C234.203 43.632 236.531 42.744 238.403 40.968C240.275 39.192 241.211 36.696 241.211 33.48V32.76C241.211 29.496 240.275 27 238.403 25.272C236.579 23.496 234.251 22.608 231.419 22.608C228.635 22.608 226.307 23.496 224.435 25.272C222.563 27 221.627 29.496 221.627 32.76V33.48C221.627 36.696 222.563 39.192 224.435 40.968C226.307 42.744 228.635 43.632 231.419 43.632Z" fill="#0A0A0A"/>
<path d="M276.469 52.416C272.917 52.416 269.773 51.672 267.037 50.184C264.349 48.648 262.237 46.512 260.701 43.776C259.213 40.992 258.469 37.728 258.469 33.984V33.12C258.469 29.376 259.213 26.136 260.701 23.4C262.189 20.616 264.277 18.48 266.965 16.992C269.653 15.456 272.773 14.688 276.325 14.688C279.829 14.688 282.877 15.48 285.469 17.064C288.061 18.6 290.077 20.76 291.517 23.544C292.957 26.28 293.677 29.472 293.677 33.12V36.216H267.685C267.781 38.664 268.693 40.656 270.421 42.192C272.149 43.728 274.261 44.496 276.757 44.496C279.301 44.496 281.173 43.944 282.373 42.84C283.573 41.736 284.485 40.512 285.109 39.168L292.525 43.056C291.853 44.304 290.869 45.672 289.573 47.16C288.325 48.6 286.645 49.848 284.533 50.904C282.421 51.912 279.733 52.416 276.469 52.416ZM267.757 29.448H284.461C284.269 27.384 283.429 25.728 281.941 24.48C280.501 23.232 278.605 22.608 276.253 22.608C273.805 22.608 271.861 23.232 270.421 24.48C268.981 25.728 268.093 27.384 267.757 29.448Z" fill="#0A0A0A"/>
</svg>
